<mxfile host="app.diagrams.net" modified="2020-12-19T14:25:34.739Z" agent="5.0 (Macintosh; Intel Mac OS X 11_0_1) AppleWebKit/537.36 (KHTML, like Gecko) Chrome/87.0.4280.88 Safari/537.36" etag="KJVL3RdV65Aj4MdsNw14" version="14.1.1" type="github">
  <diagram id="R2lEEEUBdFMjLlhIrx00" name="Page-1">
    <mxGraphModel dx="1186" dy="679" grid="1" gridSize="10" guides="1" tooltips="1" connect="1" arrows="1" fold="1" page="1" pageScale="1" pageWidth="850" pageHeight="1100" math="0" shadow="0" extFonts="Permanent Marker^https://fonts.googleapis.com/css?family=Permanent+Marker">
      <root>
        <mxCell id="0" />
        <mxCell id="1" parent="0" />
        <mxCell id="IdmwQZNdr4udqNdCdOgX-1" value="AppDelegate" style="ellipse;whiteSpace=wrap;html=1;" vertex="1" parent="1">
          <mxGeometry x="660" y="370" width="120" height="50" as="geometry" />
        </mxCell>
        <mxCell id="IdmwQZNdr4udqNdCdOgX-2" value="&lt;p class=&quot;p1&quot; style=&quot;margin: 0px ; font-stretch: normal ; line-height: normal ; font-family: &amp;#34;menlo&amp;#34; ; color: rgb(208 , 168 , 255) ; background-color: rgb(31 , 31 , 36)&quot;&gt;&lt;span style=&quot;color: rgb(0 , 0 , 0) ; font-family: &amp;#34;helvetica&amp;#34; ; background-color: rgb(248 , 249 , 250)&quot;&gt;UITabBarController&lt;/span&gt;&lt;br&gt;&lt;/p&gt;" style="rounded=1;whiteSpace=wrap;html=1;" vertex="1" parent="1">
          <mxGeometry x="510" y="430" width="150" height="40" as="geometry" />
        </mxCell>
        <mxCell id="IdmwQZNdr4udqNdCdOgX-5" value="" style="endArrow=none;html=1;entryX=0;entryY=1;entryDx=0;entryDy=0;" edge="1" parent="1" target="IdmwQZNdr4udqNdCdOgX-1">
          <mxGeometry width="50" height="50" relative="1" as="geometry">
            <mxPoint x="660" y="440" as="sourcePoint" />
            <mxPoint x="680" y="410" as="targetPoint" />
          </mxGeometry>
        </mxCell>
        <mxCell id="IdmwQZNdr4udqNdCdOgX-6" value="ProfileViewController" style="rounded=1;whiteSpace=wrap;html=1;" vertex="1" parent="1">
          <mxGeometry x="380" y="360" width="150" height="30" as="geometry" />
        </mxCell>
        <mxCell id="IdmwQZNdr4udqNdCdOgX-7" value="" style="endArrow=none;html=1;entryX=0.5;entryY=1;entryDx=0;entryDy=0;" edge="1" parent="1" source="IdmwQZNdr4udqNdCdOgX-2" target="IdmwQZNdr4udqNdCdOgX-6">
          <mxGeometry width="50" height="50" relative="1" as="geometry">
            <mxPoint x="500" y="430" as="sourcePoint" />
            <mxPoint x="550" y="380" as="targetPoint" />
          </mxGeometry>
        </mxCell>
        <mxCell id="IdmwQZNdr4udqNdCdOgX-8" value="PhotosViewController" style="rounded=1;whiteSpace=wrap;html=1;" vertex="1" parent="1">
          <mxGeometry x="500" y="280" width="150" height="30" as="geometry" />
        </mxCell>
        <mxCell id="IdmwQZNdr4udqNdCdOgX-9" value="" style="endArrow=none;html=1;" edge="1" parent="1">
          <mxGeometry width="50" height="50" relative="1" as="geometry">
            <mxPoint x="500" y="360" as="sourcePoint" />
            <mxPoint x="550" y="310" as="targetPoint" />
          </mxGeometry>
        </mxCell>
        <mxCell id="IdmwQZNdr4udqNdCdOgX-10" value="Storage" style="rounded=1;whiteSpace=wrap;html=1;" vertex="1" parent="1">
          <mxGeometry x="280" y="290" width="80" height="30" as="geometry" />
        </mxCell>
        <mxCell id="IdmwQZNdr4udqNdCdOgX-11" value="struct Post" style="rounded=1;whiteSpace=wrap;html=1;" vertex="1" parent="1">
          <mxGeometry x="340" y="190" width="80" height="30" as="geometry" />
        </mxCell>
        <mxCell id="IdmwQZNdr4udqNdCdOgX-12" value="" style="endArrow=classic;html=1;entryX=0.5;entryY=1;entryDx=0;entryDy=0;" edge="1" parent="1" target="IdmwQZNdr4udqNdCdOgX-11">
          <mxGeometry width="50" height="50" relative="1" as="geometry">
            <mxPoint x="320" y="290" as="sourcePoint" />
            <mxPoint x="370" y="240" as="targetPoint" />
          </mxGeometry>
        </mxCell>
        <mxCell id="IdmwQZNdr4udqNdCdOgX-13" value="" style="endArrow=classic;html=1;exitX=0.213;exitY=0;exitDx=0;exitDy=0;exitPerimeter=0;entryX=1;entryY=0.75;entryDx=0;entryDy=0;" edge="1" parent="1" source="IdmwQZNdr4udqNdCdOgX-6" target="IdmwQZNdr4udqNdCdOgX-10">
          <mxGeometry width="50" height="50" relative="1" as="geometry">
            <mxPoint x="380" y="350" as="sourcePoint" />
            <mxPoint x="320" y="330" as="targetPoint" />
          </mxGeometry>
        </mxCell>
        <mxCell id="IdmwQZNdr4udqNdCdOgX-14" value="ProfileTableHeaderView" style="rounded=1;whiteSpace=wrap;html=1;" vertex="1" parent="1">
          <mxGeometry x="160" y="380" width="150" height="30" as="geometry" />
        </mxCell>
        <mxCell id="IdmwQZNdr4udqNdCdOgX-15" value="" style="endArrow=classic;html=1;exitX=0;exitY=0.5;exitDx=0;exitDy=0;entryX=1;entryY=0.5;entryDx=0;entryDy=0;" edge="1" parent="1" source="IdmwQZNdr4udqNdCdOgX-6" target="IdmwQZNdr4udqNdCdOgX-14">
          <mxGeometry width="50" height="50" relative="1" as="geometry">
            <mxPoint x="380" y="400" as="sourcePoint" />
            <mxPoint x="310" y="390" as="targetPoint" />
          </mxGeometry>
        </mxCell>
        <mxCell id="IdmwQZNdr4udqNdCdOgX-16" value="" style="endArrow=classic;html=1;entryX=0.25;entryY=1;entryDx=0;entryDy=0;" edge="1" parent="1" target="IdmwQZNdr4udqNdCdOgX-10">
          <mxGeometry width="50" height="50" relative="1" as="geometry">
            <mxPoint x="250" y="380" as="sourcePoint" />
            <mxPoint x="300" y="330" as="targetPoint" />
          </mxGeometry>
        </mxCell>
        <mxCell id="IdmwQZNdr4udqNdCdOgX-17" value="" style="endArrow=classic;html=1;exitX=0;exitY=0.5;exitDx=0;exitDy=0;entryX=1;entryY=0.25;entryDx=0;entryDy=0;" edge="1" parent="1" source="IdmwQZNdr4udqNdCdOgX-8" target="IdmwQZNdr4udqNdCdOgX-10">
          <mxGeometry width="50" height="50" relative="1" as="geometry">
            <mxPoint x="500" y="300" as="sourcePoint" />
            <mxPoint x="410" y="260" as="targetPoint" />
          </mxGeometry>
        </mxCell>
        <mxCell id="IdmwQZNdr4udqNdCdOgX-18" value="Text" style="text;html=1;strokeColor=none;fillColor=none;align=center;verticalAlign=middle;whiteSpace=wrap;rounded=0;" vertex="1" parent="1">
          <mxGeometry x="380" y="240" width="40" height="20" as="geometry" />
        </mxCell>
        <mxCell id="IdmwQZNdr4udqNdCdOgX-19" value="&lt;b&gt;Карта зависимостей текущего рабочего проекта.&lt;/b&gt;&lt;br&gt;Не стал включать&amp;nbsp;&lt;i&gt;LogInViewController&lt;/i&gt; и всю ветку от &lt;i&gt;FeedViewController&lt;/i&gt;, т.к. по факту они ничего особо не делают и по существу не участвуют в проекте." style="text;html=1;strokeColor=none;fillColor=none;align=center;verticalAlign=middle;whiteSpace=wrap;rounded=0;" vertex="1" parent="1">
          <mxGeometry x="160" y="80" width="540" height="80" as="geometry" />
        </mxCell>
      </root>
    </mxGraphModel>
  </diagram>
</mxfile>
